<svg width="124" height="26" viewBox="0 0 124 26" fill="none" xmlns="http://www.w3.org/2000/svg">
<g clip-path="url(#clip0_83_88)">
<path d="M35.9733 1H2.02667C0.90737 1 0 1.91254 0 3.03822V22.9618C0 24.0875 0.90737 25 2.02667 25H35.9733C37.0926 25 38 24.0875 38 22.9618V3.03822C38 1.91254 37.0926 1 35.9733 1Z" fill="#0E4595"/>
<path d="M14.0953 18.0308L15.7856 8.05566H18.4892L16.7977 18.0308H14.0953Z" fill="white"/>
<path d="M26.5649 8.27052C26.0292 8.06843 25.19 7.85156 24.1418 7.85156C21.4705 7.85156 19.5887 9.20448 19.5727 11.1435C19.5577 12.5768 20.9161 13.3764 21.9416 13.8535C22.9939 14.3425 23.3477 14.6543 23.3427 15.0909C23.336 15.7595 22.5023 16.065 21.7252 16.065C20.6432 16.065 20.0683 15.9138 19.1805 15.5414L18.8321 15.3828L18.4526 17.6159C19.0841 17.8943 20.2518 18.1356 21.4642 18.1481C24.306 18.1481 26.1509 16.8106 26.1719 14.7401C26.182 13.6053 25.4618 12.7418 23.902 12.0299C22.9571 11.5684 22.3783 11.2605 22.3845 10.7932C22.3845 10.3786 22.8743 9.93523 23.9327 9.93523C24.8168 9.92142 25.4571 10.1153 25.9561 10.3174L26.1984 10.4325L26.5649 8.27052Z" fill="white"/>
<path d="M33.5217 8.05566H31.4327C30.7855 8.05566 30.3013 8.23329 30.017 8.88287L26.002 18.0244H28.8409C28.8409 18.0244 29.3051 16.7953 29.41 16.5254C29.7203 16.5254 32.4781 16.5297 32.8724 16.5297C32.9533 16.8789 33.2013 18.0244 33.2013 18.0244H35.7099L33.5217 8.05566ZM30.2073 14.4968C30.4309 13.9221 31.2844 11.7084 31.2844 11.7084C31.2684 11.7349 31.5063 11.1308 31.6429 10.7563L31.8256 11.6163C31.8256 11.6163 32.3433 13.9974 32.4515 14.4967H30.2073V14.4968Z" fill="white"/>
<path d="M2.32458 8.05566L2.29004 8.26327C3.35865 8.52342 4.31312 8.89988 5.14875 9.36826L7.5476 18.015L10.408 18.0116L14.6642 8.05566H11.8004L9.15359 14.858L8.87156 13.4756C8.85852 13.4335 8.84439 13.3911 8.8299 13.3488L7.90949 8.89782C7.74583 8.26618 7.27116 8.07768 6.68399 8.05566H2.32458Z" fill="white"/>
</g>
<path d="M84 22.2899C84 23.3392 83.2061 24.1899 82.2267 24.1899H55.7733C54.7939 24.1899 54 23.3391 54 22.2899V3.92345C54 2.87413 54.7939 2.02344 55.7733 2.02344H82.2266C83.2061 2.02344 83.9999 2.87413 83.9999 3.92345L84 22.2899Z" fill="#0099DF"/>
<path opacity="0.15" d="M55.2608 22.2899V3.92345C55.2608 2.87413 56.0548 2.02344 57.0342 2.02344H55.7733C54.7939 2.02344 54 2.87419 54 3.92345V22.2899C54 23.3392 54.7939 24.1899 55.7733 24.1899H57.0343C56.0549 24.1899 55.2608 23.3391 55.2608 22.2899Z" fill="#202121"/>
<path d="M73.6106 11.7616C73.6106 10.6299 74.0971 9.62 74.8584 8.95871C74.2799 8.45618 73.5427 8.15479 72.7399 8.15479C70.8806 8.15479 69.3737 9.76954 69.3737 11.7616C69.3737 13.7536 70.8806 15.3682 72.7399 15.3682C73.5428 15.3682 74.2799 15.067 74.8584 14.5643C74.0971 13.9032 73.6106 12.8933 73.6106 11.7616Z" fill="#EA001B"/>
<path d="M76.9769 8.15479C76.174 8.15479 75.4371 8.45618 74.8584 8.95871C75.6198 9.62 76.1063 10.6299 76.1063 11.7616C76.1063 12.8933 75.6198 13.9032 74.8584 14.5643C75.4371 15.067 76.1741 15.3683 76.9769 15.3683C78.8363 15.3683 80.3432 13.7536 80.3432 11.7616C80.3432 9.76954 78.8362 8.15479 76.9769 8.15479Z" fill="#F79F1A"/>
<path d="M76.1063 11.7614C76.1063 10.6297 75.6198 9.61979 74.8584 8.9585C74.0972 9.61979 73.6106 10.6297 73.6106 11.7614C73.6106 12.8931 74.0972 13.903 74.8584 14.5641C75.6197 13.903 76.1063 12.8931 76.1063 11.7614Z" fill="#FF5F01"/>
<path d="M63.7173 13.4336C63.7173 13.687 63.5254 13.8923 63.2891 13.8923H57.9757C57.7391 13.8923 57.5475 13.687 57.5475 13.4336V8.99729C57.5475 8.74386 57.7392 8.53857 57.9757 8.53857H63.2891C63.5255 8.53857 63.7173 8.74386 63.7173 8.99729V13.4336Z" fill="#FFC715"/>
<path d="M63.776 17.8216H57.5475C57.2773 17.8216 57.0583 17.5869 57.0583 17.2975C57.0583 17.008 57.2773 16.7734 57.5475 16.7734H63.776C64.0462 16.7734 64.2651 17.008 64.2651 17.2975C64.2651 17.5869 64.0462 17.8216 63.776 17.8216Z" fill="#34495E"/>
<path d="M63.776 20.0071H57.5475C57.2773 20.0071 57.0583 19.7726 57.0583 19.483C57.0583 19.1936 57.2773 18.959 57.5475 18.959H63.776C64.0462 18.959 64.2651 19.1935 64.2651 19.483C64.2651 19.7725 64.0462 20.0071 63.776 20.0071Z" fill="#34495E"/>
<path d="M59.2085 13.8925H60.1868V13.3684V9.06264V8.53857H59.2085V9.06264V9.79901H58.0365H57.5474V10.8471H58.0365H59.2085V11.5839H58.0365H57.5474V12.632H58.0365H59.2085V13.3684V13.8925Z" fill="#FFA617"/>
<path d="M63.2282 10.8471H63.7174V9.79901H63.2282H62.2954V9.06264V8.53857H61.3171V9.06264V12.1079C61.3171 12.3973 61.536 12.632 61.8063 12.632H63.2282H63.7174V11.5838H63.2282H62.2954V10.8471H63.2282Z" fill="#FFA617"/>
<path opacity="0.15" d="M58.4484 13.4336V8.99729C58.4484 8.74386 58.6401 8.53857 58.8766 8.53857H57.9757C57.7391 8.53857 57.5475 8.74386 57.5475 8.99729V13.4336C57.5475 13.687 57.7392 13.8923 57.9757 13.8923H58.8767C58.6401 13.8924 58.4484 13.687 58.4484 13.4336Z" fill="#202121"/>
<g clip-path="url(#clip1_83_88)">
<path d="M124.6 -2.78955H99.4C96.4177 -2.78955 94 -0.753624 94 1.75782V22.9789C94 25.4903 96.4177 27.5262 99.4 27.5262H124.6C127.582 27.5262 130 25.4903 130 22.9789V1.75782C130 -0.753624 127.582 -2.78955 124.6 -2.78955Z" fill="white"/>
<path d="M120.508 8.15245L106.706 20.8353H101.643C101.291 20.8353 101.01 20.5393 101.081 20.2432L104.456 2.24324C104.526 1.82877 104.948 1.53271 105.44 1.53271H114.018C119.924 1.71035 121.541 4.2564 120.487 8.16429L120.508 8.15245Z" fill="#002C8A"/>
<path d="M120.733 6.98047C122.842 7.92784 123.334 9.70415 122.631 12.0726C121.717 15.566 118.975 17.0463 114.967 17.1055L113.842 17.1647C113.42 17.1647 113.139 17.4015 113.069 17.7568L112.155 22.4344C112.084 22.8489 111.663 23.1449 111.17 23.1449H106.952C106.6 23.1449 106.319 22.8489 106.389 22.5528L107.936 14.0857C108.006 13.7897 120.733 6.98047 120.733 6.98047Z" fill="#009BE1"/>
<path d="M107.852 14.5002L109.258 6.98042C109.304 6.80233 109.418 6.64201 109.584 6.52427C109.749 6.40653 109.956 6.33793 110.172 6.3291H116.922C118.539 6.3291 119.734 6.56594 120.719 6.98042C120.367 9.58568 118.891 13.7896 111.719 13.908H108.625C108.273 13.908 107.922 14.1449 107.852 14.5002Z" fill="#001F6B"/>
</g>
<defs>
<clipPath id="clip0_83_88">
<rect width="38" height="24" fill="white" transform="translate(0 1)"/>
</clipPath>
<clipPath id="clip1_83_88">
<rect width="24" height="24" fill="white" transform="translate(100 1)"/>
</clipPath>
</defs>
</svg>
